<svg width="146" height="146" viewBox="0 0 146 146" fill="none" xmlns="http://www.w3.org/2000/svg">
<path d="M130.34 0H15.24C6.82318 0 0 6.82318 0 15.24V130.34C0 138.757 6.82318 145.58 15.24 145.58H130.34C138.757 145.58 145.58 138.757 145.58 130.34V15.24C145.58 6.82318 138.757 0 130.34 0Z" fill="#3742FA"/>
<path d="M30.42 44.4502L46.84 44.3402C46.909 44.3392 46.9761 44.3627 47.0292 44.4067C47.0824 44.4507 47.1181 44.5122 47.13 44.5802L49.7 59.6402C49.7091 59.702 49.7378 59.7592 49.782 59.8033C49.8262 59.8474 49.8834 59.8761 49.9452 59.8851C50.007 59.8941 50.07 59.8829 50.1249 59.8532C50.1799 59.8235 50.2237 59.7768 50.25 59.7202C52.5778 54.7445 56.3848 50.6087 61.151 47.8775C65.9172 45.1463 71.4102 43.9529 76.88 44.4602C77.0383 44.4728 77.186 44.5447 77.2935 44.6615C77.401 44.7783 77.4605 44.9314 77.46 45.0902L81.72 59.5502C81.7357 59.6069 81.7683 59.6575 81.8134 59.6952C81.8586 59.733 81.9141 59.7561 81.9727 59.7615C82.0313 59.767 82.0902 59.7544 82.1415 59.7256C82.1928 59.6968 82.2341 59.653 82.26 59.6002C83.89 56.3702 92.12 42.8902 114.92 44.4602C115.065 44.4702 115.201 44.5343 115.301 44.6399C115.401 44.7455 115.458 44.8848 115.46 45.0302V100.44C115.457 100.656 115.37 100.862 115.216 101.014C115.063 101.165 114.856 101.25 114.64 101.25H94.27C94.2226 101.251 94.1757 101.241 94.1333 101.22C94.0908 101.199 94.0542 101.168 94.0266 101.129C93.999 101.091 93.9812 101.046 93.9748 100.999C93.9684 100.952 93.9736 100.905 93.99 100.86C95.43 96.9602 106.77 64.7102 92.22 60.7302H92.16C91.67 60.7302 86.16 60.8002 85.68 71.3302L86 101C86 101.038 85.9925 101.076 85.9779 101.111C85.9634 101.146 85.942 101.178 85.9151 101.205C85.8881 101.232 85.8562 101.254 85.821 101.268C85.7858 101.283 85.7481 101.29 85.71 101.29H66.09C66.0515 101.292 66.0132 101.285 65.9774 101.271C65.9416 101.257 65.909 101.236 65.8818 101.208C65.8546 101.181 65.8333 101.149 65.8192 101.113C65.8051 101.077 65.7986 101.039 65.8 101L66.14 71.3802C66.14 71.1402 65.6 60.7402 59.64 60.7702C59.22 60.8202 44.97 62.7702 57.86 100.91C57.876 100.954 57.8813 101.001 57.8755 101.047C57.8696 101.093 57.8527 101.137 57.8262 101.175C57.7997 101.214 57.7645 101.245 57.7234 101.267C57.6822 101.288 57.6365 101.3 57.59 101.3H30.42C30.26 101.3 30.1 101.17 30.13 101.01C32.62 87.1902 32.59 59.0802 30.13 44.8002C30.1 44.5902 30.26 44.4602 30.42 44.4502Z" fill="white"/>
</svg>
