<svg xmlns="http://www.w3.org/2000/svg" width="0" height="0" style="display: none;">
  <symbol fill="none" xmlns="http://www.w3.org/2000/svg" viewBox="0 0 20 21" id="icon-close">
    <path d="M11.1884 10.5103L15.5992 6.09949C15.6788 6.02262 15.7423 5.93066 15.786 5.82899C15.8297 5.72732 15.8527 5.61797 15.8536 5.50732C15.8546 5.39667 15.8335 5.28694 15.7916 5.18453C15.7497 5.08211 15.6878 4.98907 15.6096 4.91083C15.5313 4.83258 15.4383 4.7707 15.3359 4.7288C15.2335 4.6869 15.1237 4.66582 15.0131 4.66678C14.9024 4.66774 14.7931 4.69073 14.6914 4.7344C14.5897 4.77808 14.4978 4.84156 14.4209 4.92116L10.0101 9.33199L5.59924 4.92116C5.44208 4.76936 5.23157 4.68536 5.01308 4.68726C4.79458 4.68916 4.58557 4.7768 4.43106 4.93131C4.27656 5.08581 4.18891 5.29482 4.18702 5.51332C4.18512 5.73182 4.26911 5.94232 4.42091 6.09949L8.83174 10.5103L4.42091 14.9212C4.34132 14.998 4.27783 15.09 4.23416 15.1917C4.19049 15.2933 4.1675 15.4027 4.16654 15.5133C4.16557 15.624 4.18666 15.7337 4.22856 15.8361C4.27046 15.9385 4.33234 16.0316 4.41058 16.1098C4.48883 16.1881 4.58187 16.2499 4.68428 16.2918C4.7867 16.3337 4.89643 16.3548 5.00708 16.3539C5.11773 16.3529 5.22708 16.3299 5.32875 16.2862C5.43042 16.2426 5.52237 16.1791 5.59924 16.0995L10.0101 11.6887L14.4209 16.0995C14.5781 16.2513 14.7886 16.3353 15.0071 16.3334C15.2256 16.3315 15.4346 16.2438 15.5891 16.0893C15.7436 15.9348 15.8312 15.7258 15.8331 15.5073C15.835 15.2888 15.751 15.0783 15.5992 14.9212L11.1884 10.5103Z" fill="#3A3B3C"/>
  </symbol>
</svg>
